<svg width="95" height="39" viewBox="0 0 95 39" fill="none" xmlns="http://www.w3.org/2000/svg">
<path d="M33.8027 9.51489H46.8052V14.1846H39.3268V17.0285H45.6232V21.429H39.3268V28.9309H33.8027V9.51489Z" fill="#0A647E"/>
<path d="M55.0913 15.4368C59.5152 15.4368 62.7103 18.4446 62.7103 22.3301C62.7103 26.2157 59.5152 29.2235 55.0913 29.2235C50.6674 29.2235 47.4724 26.2157 47.4724 22.3301C47.4724 18.4446 50.6674 15.4368 55.0913 15.4368ZM55.0913 24.7996C56.4606 24.7996 57.4554 23.7229 57.4554 22.3301C57.4554 20.9374 56.4606 19.8607 55.0913 19.8607C53.722 19.8607 52.7273 20.9374 52.7273 22.3301C52.739 23.7229 53.722 24.7996 55.0913 24.7996Z" fill="#0A647E"/>
<path d="M71.6048 15.4368C76.0287 15.4368 79.2237 18.4446 79.2237 22.3301C79.2237 26.2157 76.0287 29.2235 71.6048 29.2235C67.1809 29.2235 63.9858 26.2157 63.9858 22.3301C63.9858 18.4446 67.1809 15.4368 71.6048 15.4368ZM71.6048 24.7996C72.9741 24.7996 73.9689 23.7229 73.9689 22.3301C73.9689 20.9374 72.9741 19.8607 71.6048 19.8607C70.2355 19.8607 69.2407 20.9374 69.2407 22.3301C69.2524 23.7229 70.2472 24.7996 71.6048 24.7996Z" fill="#0A647E"/>
<path d="M89.7336 28.2287C88.8441 28.8958 87.6972 29.2235 86.5737 29.2235C83.4137 29.2235 80.5464 26.7072 80.5464 22.6227C80.5464 18.4095 83.6244 15.4368 87.4865 15.4368C88.2941 15.4368 89.0197 15.5656 89.6283 15.8113L89.6868 15.7879V8.43817H95.0001V28.9192H89.8038V28.2521L89.7336 28.2287ZM89.6868 19.9192C89.3123 19.7554 88.8792 19.6501 88.376 19.6501C86.6322 19.6501 85.9066 20.914 85.9066 22.3887C85.9066 23.9218 86.679 25.0922 88.2121 25.0922C88.7739 25.0922 89.3123 24.9283 89.6868 24.7411V19.9192Z" fill="#0A647E"/>
<path d="M24.4518 9.40955C15.1944 5.44209 6.35833 14.2899 10.3258 23.5356C11.2738 25.7593 13.0644 27.5382 15.288 28.4978C24.5455 32.4653 33.3816 23.6175 29.4141 14.3718C28.4544 12.1482 26.6755 10.3692 24.4518 9.40955ZM18.9044 28.451C17.2893 26.5785 14.2464 22.377 14.8316 17.7775C14.9603 16.7359 15.7913 15.4017 16.669 14.8399C20.7184 12.2769 24.9551 15.1208 24.9551 18.9596C24.9551 22.927 22.2516 26.6838 20.7887 28.4393C20.2971 29.0245 19.4077 29.0245 18.9044 28.451Z" fill="#0A647E"/>
<path d="M4.62612 16.8178C6.83022 16.8178 8.61699 15.0311 8.61699 12.827C8.61699 10.6229 6.83022 8.83609 4.62612 8.83609C2.42203 8.83609 0.635254 10.6229 0.635254 12.827C0.635254 15.0311 2.42203 16.8178 4.62612 16.8178Z" fill="url(#paint0_radial_44_16)"/>
<path d="M13.5089 7.98174C15.713 7.98174 17.4998 6.19497 17.4998 3.99087C17.4998 1.78677 15.713 0 13.5089 0C11.3048 0 9.51807 1.78677 9.51807 3.99087C9.51807 6.19497 11.3048 7.98174 13.5089 7.98174Z" fill="#FF77AF"/>
<path d="M26.0316 8.01685C28.2357 8.01685 30.0225 6.23008 30.0225 4.02598C30.0225 1.82188 28.2357 0.0351105 26.0316 0.0351105C23.8275 0.0351105 22.0408 1.82188 22.0408 4.02598C22.0408 6.23008 23.8275 8.01685 26.0316 8.01685Z" fill="#F8C365"/>
<path d="M25.9496 38.2702C28.1537 38.2702 29.9405 36.4835 29.9405 34.2794C29.9405 32.0753 28.1537 30.2885 25.9496 30.2885C23.7455 30.2885 21.9587 32.0753 21.9587 34.2794C21.9587 36.4835 23.7455 38.2702 25.9496 38.2702Z" fill="#9DC548"/>
<path d="M13.4272 38.2351C15.6312 38.2351 17.418 36.4483 17.418 34.2442C17.418 32.0402 15.6312 30.2534 13.4272 30.2534C11.2231 30.2534 9.43628 32.0402 9.43628 34.2442C9.43628 36.4483 11.2231 38.2351 13.4272 38.2351Z" fill="#F8C365"/>
<path d="M4.59097 29.3522C6.79507 29.3522 8.58184 27.5654 8.58184 25.3613C8.58184 23.1572 6.79507 21.3705 4.59097 21.3705C2.38687 21.3705 0.600098 23.1572 0.600098 25.3613C0.600098 27.5654 2.38687 29.3522 4.59097 29.3522Z" fill="#FF77AF"/>
<defs>
<radialGradient id="paint0_radial_44_16" cx="0" cy="0" r="1" gradientUnits="userSpaceOnUse" gradientTransform="translate(14.2173 16.6485) rotate(-67.6719) scale(13.9165)">
<stop offset="0.4576" stop-color="#075C79"/>
<stop offset="0.8634" stop-color="#188797"/>
</radialGradient>
</defs>
</svg>
