<?xml version="1.0" encoding="utf-8"?><svg viewBox="0 0 285 240" xmlns="http://www.w3.org/2000/svg" xmlns:xlink="http://www.w3.org/1999/xlink"><style>:root>svg{display:none}:root>svg:target{display:block}</style><svg fill="currentColor" viewBox="0 0 16 16" id="arrow-left" xmlns="http://www.w3.org/2000/svg"><path d="M16 8a1 1 0 00-1-1H3.83l4.88-4.88A1 1 0 007.295.705L0 8l7.295 7.295a.998.998 0 001.41-1.41L3.83 9H15a1 1 0 001-1z"/></svg><svg fill="currentColor" viewBox="0 0 16 16" id="arrow-left-bold" xmlns="http://www.w3.org/2000/svg"><path d="M15.84 4.84v6h-8v4.84L0 7.84 7.84 0v4.84h8z"/></svg><svg fill="currentColor" viewBox="0 0 16 16" id="arrow-right" xmlns="http://www.w3.org/2000/svg"><path d="M0 8a1 1 0 001 1h11.17l-4.88 4.88a1 1 0 001.415 1.415L16 8 8.705.705a.997.997 0 00-1.41 1.41L12.17 7H1a1 1 0 00-1 1z"/></svg><svg fill="currentColor" viewBox="0 0 285 240" id="card-img-dish" xmlns="http://www.w3.org/2000/svg"><path d="M142.244 88.77c-63.314.876-67.411 57.905-67.411 57.905l66.126-.001h66.208s-3.943-57.028-64.927-57.905l.004.001zm-46.076 45.906H81.936s14.706-40.467 51.236-41.28c0-.003-31.073 6.709-37.004 41.28z"/><path d="M208.187 147.621H73.813l.074-1.017c.04-.578 4.89-57.905 68.343-58.786 61.175.88 65.845 58.207 65.885 58.79l.072 1.013zM75.89 145.724h130.227c-.93-7.606-8.974-55.218-63.887-56.008-57.055.79-65.377 48.394-66.34 56.008zm21.077-10.101H80.582l.463-1.274c.15-.41 15.353-41.087 52.107-41.904l.223 1.877c-.306.066-30.522 7.006-36.27 40.515l-.138.786zm-13.626-1.899h12.033c4.345-23.519 20.415-34.184 30.085-38.566-26.575 5.111-39.485 32.326-42.118 38.566z"/><path d="M140.844 88.726c.481 0 .924.034 1.399.042.491-.008.953-.042 1.452-.042h-2.851z"/><path d="M142.244 89.719l-.653-.021c-.245-.01-.49-.022-.745-.022v-1.898h2.85v1.898c-.268 0-.522.01-.779.022l-.673.02zM70.953 154.11v.789a5.693 5.693 0 005.693 5.693h131.257a5.694 5.694 0 005.693-5.693v-.789H70.953z"/><path d="M207.896 161.538H76.643A6.65 6.65 0 0170 154.896v-1.738h144.54v1.738a6.652 6.652 0 01-6.643 6.642h-.001zm-135.994-6.482a4.75 4.75 0 004.742 4.585h131.257a4.751 4.751 0 004.743-4.585H71.902zM147.326 81.295a2.056 2.056 0 01-2.057 2.055h-6.642a2.055 2.055 0 110-4.111h6.642c1.138 0 2.057.92 2.057 2.056z"/><path d="M145.27 83.585h-6.643a2.295 2.295 0 01-2.293-2.292A2.295 2.295 0 01138.627 79h6.643a2.296 2.296 0 012.294 2.293 2.295 2.295 0 01-2.294 2.292zm-6.642-4.11a1.82 1.82 0 00-1.817 1.818 1.82 1.82 0 001.817 1.817h6.643c1.002 0 1.82-.815 1.82-1.817a1.822 1.822 0 00-1.82-1.818h-6.643z"/><path d="M139.895 81.294h4.113v7.433h-4.113v-7.433z"/><path d="M144.243 88.963h-4.587v-7.908h4.587v7.908zm-4.11-.474h3.637v-6.958h-3.637v6.958z"/></svg><svg fill="currentColor" viewBox="0 0 285 240" id="card-img-glass" xmlns="http://www.w3.org/2000/svg"><path d="M181.815 74.362c-.947-.947-2.131-1.42-3.552-1.42h-28.411l1.894-9.471h19.414a4.75 4.75 0 004.736-4.736A4.75 4.75 0 00171.16 54h-23.439a4.839 4.839 0 00-4.736 3.788l-2.841 15.153h-32.909c-1.42 0-2.604.474-3.551 1.42-.71.948-1.184 2.368-1.184 3.552l3.078 49.485 3.315 54.692c.236 2.604 2.131 4.498 4.735 4.498h58.244c2.604 0 4.499-1.894 4.735-4.498l3.315-54.692L183 77.913c0-1.184-.474-2.604-1.184-3.551h-.001zm-8.524 8.05l-2.367 40.014h-30.78l7.813-40.014h25.334zm-35.041 0l-7.813 40.014H114.81l-2.367-40.014h25.807z"/></svg><svg fill="currentColor" viewBox="0 0 13 9" id="chevron-down" xmlns="http://www.w3.org/2000/svg"><path fill-rule="evenodd" clip-rule="evenodd" d="M12.24 2.772a1.071 1.071 0 00-1.513-1.517L6.5 5.473 2.273 1.255A1.071 1.071 0 00.76 2.772L6.5 8.5l5.74-5.728z"/></svg><svg fill="currentColor" viewBox="0 0 8 13" id="chevron-right" xmlns="http://www.w3.org/2000/svg"><path fill-rule="evenodd" clip-rule="evenodd" d="M2.272.76A1.071 1.071 0 00.755 2.273L4.973 6.5.755 10.727a1.071 1.071 0 101.517 1.513L8 6.5 2.272.76z"/></svg><svg fill="currentColor" viewBox="0 0 19 17" id="icon-cart" xmlns="http://www.w3.org/2000/svg"><path d="M17.939 2.704a.578.578 0 00-.477-.228H4.475l-.438-2A.593.593 0 003.447 0H.609A.602.602 0 000 .61c0 .342.267.609.61.609h2.36L5.447 12.53a.593.593 0 00.59.477h9.617c.343 0 .61-.267.61-.61a.602.602 0 00-.61-.61H6.532l-.305-1.39h9.731c.286 0 .533-.19.59-.476l1.524-6.703a.727.727 0 00-.134-.514zM15.844 15.158a1.447 1.447 0 11-2.895 0 1.447 1.447 0 012.895 0zM8.779 15.158a1.447 1.447 0 11-2.895 0 1.447 1.447 0 012.895 0z"/></svg><svg fill="currentColor" viewBox="0 0 28 28" id="icon-check" xmlns="http://www.w3.org/2000/svg"><path fill-rule="evenodd" clip-rule="evenodd" d="M24.889 0H3.11A3.12 3.12 0 000 3.111V24.89A3.12 3.12 0 003.111 28H24.89A3.12 3.12 0 0028 24.889V3.11A3.12 3.12 0 0024.889 0zm-14 21.778L3.11 14l2.178-2.178 5.6 5.6L22.71 5.6l2.178 2.178-14 14z"/></svg><svg fill="currentColor" viewBox="0 0 14 18" id="icon-delete" xmlns="http://www.w3.org/2000/svg"><path d="M14 1h-3.5l-1-1h-5l-1 1H0v2h14V1zM1 16a2 2 0 002 2h8a2 2 0 002-2V4H1v12z"/></svg><svg fill="currentColor" viewBox="0 0 25 28" id="icon-pdf" xmlns="http://www.w3.org/2000/svg"><path d="M5.875 16.887H4.713v1.733h1.162c.466 0 .835-.41.835-.842 0-.487-.369-.89-.835-.89zM10.552 16.922H9.396v3.117h1.155c1.88 0 1.962-3.117 0-3.117z"/><path d="M20.019 13.056H.87a.873.873 0 00-.87.87v8.704c0 .479.392.87.87.87H20.02c.48 0 .87-.392.87-.87v-8.704c0-.479-.39-.87-.87-.87zM5.875 19.49H4.713v.919c0 .306-.195.48-.446.48a.47.47 0 01-.473-.481V16.49a.48.48 0 01.473-.481h1.608c.905 0 1.72.605 1.72 1.767-.001 1.1-.815 1.713-1.72 1.713zm4.74 1.398H8.957c-.23 0-.48-.126-.48-.432v-3.952c0-.25.25-.432.48-.432h1.594c3.18 0 3.11 4.816.062 4.816zm6.2-3.911H14.79v1.106h1.775c.252 0 .502.25.502.494 0 .23-.25.417-.502.417H14.79v1.462c0 .243-.174.431-.417.431-.307 0-.495-.188-.495-.431v-3.953c0-.25.189-.431.495-.431h2.443c.306 0 .486.18.486.431a.48.48 0 01-.486.474z"/><path d="M23.5 6.602L17.768.87C17.265.366 16.381 0 15.667 0H6.093a2.614 2.614 0 00-2.611 2.611v8.704a.87.87 0 101.74 0V2.61c0-.48.39-.87.87-.87h7.834c.962 0 1.741.78 1.741 1.74v3.264c0 1.078.883 1.959 1.958 1.959h3.264c.962 0 1.741.78 1.741 1.74v14.797c0 .48-.39.87-.87.87H6.093c-.48 0-.87-.39-.87-.87a.87.87 0 10-1.741 0 2.614 2.614 0 002.61 2.611H21.76a2.614 2.614 0 002.61-2.611V8.704c0-.713-.365-1.597-.87-2.101z"/></svg><svg fill="currentColor" viewBox="0 0 19 19" id="icon-pencil" xmlns="http://www.w3.org/2000/svg"><path d="M17.71 4.043c.39-.39.39-1.04 0-1.41L15.37.292c-.37-.39-1.02-.39-1.41 0l-1.84 1.83 3.75 3.75 1.84-1.83zM0 14.253v3.75h3.75l11.06-11.07-3.75-3.75L0 14.253z"/></svg></svg>