<svg width="34" height="34" viewBox="0 0 34 34" fill="none" xmlns="http://www.w3.org/2000/svg">
<path d="M6.95131 4.25478C6.83423 4.05639 6.60029 3.95974 6.37656 4.01573C6.15263 4.07661 6 4.28011 6 4.50894V18.7498H10.5775V17.6054C10.5775 12.9415 9.33648 8.34366 6.98661 4.31549L6.95131 4.25478Z" fill="#506CFF"/>
<path d="M6.00049 27.9151C6.00049 28.7491 6.6821 29.4307 7.53656 29.4307C8.37058 29.4307 9.05213 28.7491 9.05213 27.9151V19.7672H6.00049V27.9151Z" fill="#506CFF"/>
<path d="M15.6637 4.0004C13.38 4.0004 11.5947 6.90453 11.5947 10.6121C11.5947 13.3585 12.6069 15.7695 14.1378 16.7508V27.915C14.1378 28.749 14.8194 29.4305 15.6739 29.4305C16.5079 29.4305 17.1895 28.7489 17.1895 27.915V16.7514C18.7204 15.7696 19.7326 13.3589 19.7326 10.6127C19.7324 6.90475 17.9473 4.0004 15.6637 4.0004V4.0004Z" fill="#506CFF"/>
<path d="M27.8706 4.0004C27.5909 4.0004 27.3621 4.22923 27.3621 4.50894V11.9141C27.3621 13.1398 26.4872 14.157 25.3277 14.3808L25.3275 4.50872C25.3275 4.22901 25.0987 4.00018 24.819 4.00018C24.5393 4.00018 24.3104 4.22901 24.3104 4.50872V14.3808C23.1508 14.1571 22.2761 13.1398 22.2761 11.9141L22.2759 4.50894C22.2759 4.22923 22.047 4.0004 21.7673 4.0004C21.4876 4.0004 21.2588 4.22923 21.2588 4.50894V11.9141C21.2588 13.333 22.0979 14.5536 23.3085 15.1184C23.3034 15.1386 23.2931 15.1641 23.2931 15.1897V27.915C23.2931 28.7491 23.9747 29.4306 24.8292 29.4306C25.6632 29.4306 26.3448 28.749 26.3448 27.915V15.1897C26.3448 15.1641 26.3346 15.1388 26.3295 15.1184C27.54 14.5539 28.3791 13.333 28.3791 11.9141V4.50894C28.3791 4.22923 28.1503 4.0004 27.8706 4.0004H27.8706Z" fill="#506CFF"/>
</svg>
