<svg width="285" height="240" viewBox="0 0 285 240" fill="none" xmlns="http://www.w3.org/2000/svg">
<path d="M142.244 88.77C78.9299 89.6463 74.833 146.675 74.833 146.675L140.959 146.674H207.167C207.167 146.674 203.224 89.6463 142.24 88.7687L142.244 88.77ZM96.168 134.676H81.9356C81.9356 134.676 96.6418 94.2088 133.172 93.3955C133.172 93.3929 102.099 100.105 96.168 134.676V134.676Z" fill="#BDBADE"/>
<path d="M208.187 147.621H73.813L73.8871 146.604C73.9268 146.026 78.777 88.6987 142.23 87.8176C203.405 88.6979 208.075 146.025 208.115 146.608L208.187 147.621ZM75.8902 145.724H206.117C205.187 138.118 197.143 90.5056 142.23 89.7161C85.1752 90.5063 76.8526 138.11 75.8902 145.724V145.724ZM96.9674 135.623H80.5815L81.0448 134.349C81.1944 133.939 96.3985 93.2617 133.152 92.445L133.375 94.322C133.069 94.3882 102.853 101.328 97.1058 134.837L96.9674 135.623ZM83.3412 133.724H95.3737C99.7193 110.205 115.789 99.5396 125.459 95.158C98.884 100.269 85.9739 127.484 83.3409 133.724H83.3412Z" fill="#BDBADE"/>
<path d="M140.844 88.726C141.325 88.726 141.768 88.7604 142.243 88.7683C142.734 88.7604 143.196 88.726 143.695 88.726H140.844Z" fill="#BDBADE"/>
<path d="M142.244 89.7187L141.591 89.6976C141.346 89.6883 141.101 89.6764 140.846 89.6764V87.7782H143.696V89.6764C143.428 89.6764 143.174 89.6857 142.917 89.6976L142.244 89.7187Z" fill="#BDBADE"/>
<path d="M70.9529 154.11V154.899C70.9529 158.043 73.501 160.592 76.6462 160.592H207.903C211.045 160.592 213.596 158.044 213.596 154.899V154.11H70.9529Z" fill="#BDBADE"/>
<path d="M207.896 161.538H76.6425C72.9797 161.538 70 158.558 70 154.896V153.158H214.54V154.896C214.539 158.558 211.559 161.538 207.897 161.538H207.896ZM71.9017 155.056C71.9851 157.599 74.0805 159.641 76.6445 159.641H207.901C210.465 159.641 212.558 157.599 212.644 155.056H71.9017Z" fill="#BDBADE"/>
<path d="M147.326 81.2946C147.326 82.429 146.407 83.3503 145.269 83.3503H138.627C137.49 83.3503 136.571 82.4303 136.571 81.2946C136.571 80.1575 137.491 79.2389 138.627 79.2389H145.269C146.407 79.2389 147.326 80.1588 147.326 81.2946Z" fill="#BDBADE"/>
<path d="M145.27 83.5853H138.627C137.362 83.5853 136.334 82.5567 136.334 81.2926C136.334 80.0272 137.363 79 138.627 79H145.27C146.535 79 147.564 80.0285 147.564 81.2926C147.565 82.5568 146.536 83.5853 145.27 83.5853ZM138.628 79.4752C137.626 79.4752 136.811 80.2905 136.811 81.2926C136.811 82.2946 137.626 83.11 138.628 83.11H145.271C146.273 83.11 147.091 82.2947 147.091 81.2926C147.091 80.2906 146.273 79.4752 145.271 79.4752H138.628Z" fill="#BDBADE"/>
<path d="M139.895 81.2944H144.008V88.7271H139.895V81.2944Z" fill="#BDBADE"/>
<path d="M144.243 88.9631H139.656V81.0553H144.243V88.9631ZM140.133 88.4892H143.77V81.5306H140.133V88.4892Z" fill="#BDBADE"/>
</svg>
