<svg width="285" height="240" viewBox="0 0 285 240" fill="none" xmlns="http://www.w3.org/2000/svg">
<path d="M181.815 74.3618C180.868 73.4147 179.684 72.9412 178.263 72.9412H149.852L151.746 63.4706H171.16C173.765 63.4706 175.896 61.3397 175.896 58.7353C175.896 56.1309 173.765 54 171.16 54H147.721C145.353 54 143.459 55.6574 142.985 57.7882L140.144 72.9412H107.235C105.815 72.9412 104.631 73.4147 103.684 74.3618C102.974 75.3088 102.5 76.7294 102.5 77.9132L105.578 127.398L108.893 182.09C109.129 184.694 111.024 186.588 113.628 186.588H171.872C174.476 186.588 176.371 184.694 176.607 182.09L179.922 127.398L183 77.9132C183 76.7294 182.526 75.3088 181.816 74.3618H181.815ZM173.291 82.4118L170.924 122.426H140.144L147.957 82.4118H173.291ZM138.25 82.4118L130.437 122.426H114.81L112.443 82.4118H138.25Z" fill="#BDBADE"/>
</svg>
